@startuml
scale 2    
' 好像是图像显示大小的作用
class Event {
    +startTime: DateTime
    +venue: string
    +registrationClosed: boolean
    -notifyAttendes()
}
 
class ApplicationUser {
    -userName: string
    -password: string
    +isLocked: boolean
    -suggestRandomPasswod()
    +changeProfilePic()
}
 
class Speaker {
    +openForSpeaking: boolean
    -callForAction()
    +applyAsSpokePerson()
}
 
class Topic {
    +title: string
    +sourceCodeUrl: string
    +downloadMaterials()
}
 
class Attendee {
    -eventAttended: number
    -suggestEventBasedOnPreference()
    +registerForTicket()
}
 
ApplicationUser <|-- Speaker
ApplicationUser <|-- Attendee
Speaker "1" *-- "*" Topic
Event "1" o-- "*" Speaker
Event "1" o-- "*" Attendee
@enduml


' 空箭头 <|— 泛化/继承

' 填充菱形箭头 *— 组成

' 空菱形箭头 o—  聚合